Coordinates
version=1
nRows=11
nColumns=42
inDegrees=yes

Units are S.I. units (second, meters, Newtons, ...)
If the header above contains a line with 'inDegrees', this indicates whether rotational values are in degrees (yes) or radians (no).

endheader
time	pelvis_tilt	pelvis_list	pelvis_rotation	pelvis_tx	pelvis_ty	pelvis_tz	hip_flexion_r	hip_adduction_r	hip_rotation_r	knee_angle_r	knee_adduction_r	knee_angle_r_beta	ankle_angle_r	subtalar_angle_r	mtp_angle_r	hip_flexion_l	hip_adduction_l	hip_rotation_l	knee_angle_l	knee_adduction_l	knee_angle_l_beta	ankle_angle_l	subtalar_angle_l	mtp_angle_l	lumbar_extension	lumbar_bending	lumbar_rotation	arm_flex_r	arm_add_r	arm_rot_r	elbow_flex_r	pro_sup_r	wrist_flex_r	wrist_dev_r	arm_flex_l	arm_add_l	arm_rot_l	elbow_flex_l	pro_sup_l	wrist_flex_l	wrist_dev_l
      0.00000000	     14.52689222	     -0.89139024	      2.86608194	     -1.13392556	      0.85393203	     -0.26975829	     11.94663663	      1.87497855	    -11.62220465	     19.59360316	     -1.33533709	      0.34197289	     14.18922058	     -9.49685670	     -9.45155829	    -26.82748565	     -1.37939916	    -13.80950627	      2.15068408	      6.03285606	      0.03753652	     23.27472084	      5.85759259	     -9.45155829	    -30.02651594	      1.71686355	      0.86868592	    -11.16630963	     -5.23055074	    -12.15283493	     28.75479397	     90.00000001	      0.00000000	      0.00000000	     27.13496917	     -9.77455754	     -1.13136437	     46.79496371	     90.00000001	      0.00000000	      0.00000000
      0.01000000	     14.33375029	     -0.54758633	      2.97418951	     -1.12377949	      0.85186779	     -0.26968115	     12.26971811	      1.40474304	    -12.23278650	     17.27573044	     -1.09294395	      0.30151838	     14.02847664	     -7.93923354	     -9.40951917	    -27.26809221	     -0.95701594	    -13.66588726	      2.36537401	      5.64155576	      0.04128356	     23.70388348	      6.01483718	     -9.40951917	    -29.81803747	      1.45158850	      0.69403775	    -11.73274691	     -5.11402769	    -12.15504831	     28.57590872	     90.00000001	      0.00000000	      0.00000000	     27.67850459	     -9.85490416	     -0.78658455	     47.77227796	     90.00000001	      0.00000000	      0.00000000
      0.02000000	     14.23621029	     -0.31369049	      3.17050828	     -1.11356515	      0.85002262	     -0.26963425	     12.41081016	      1.06279198	    -12.98291049	     15.11922626	     -0.91299988	      0.26388028	     13.94347789	     -6.15141521	     -9.36990775	    -27.80339356	     -0.71163957	    -13.46424281	      2.61604356	      5.25324927	      0.04565857	     24.06488770	      6.30456314	     -9.36990775	    -29.72266100	      1.35339520	      0.51152063	    -12.18389317	     -5.00893345	    -12.25278798	     28.37775984	     90.00000001	      0.00000000	      0.00000000	     28.15944548	     -9.94143764	     -0.32506783	     48.74838667	     90.00000001	      0.00000000	      0.00000000
      0.03000000	     14.15799851	     -0.20721384	      3.49195838	     -1.10289872	      0.84819168	     -0.26936539	     12.73943140	      0.76808549	    -15.07496955	     13.80378899	     -0.94783718	      0.24092157	     14.59898541	     -2.38763429	     -9.21980112	    -28.33737041	     -0.84891184	    -13.46662133	      3.05799207	      5.19319372	      0.05337203	     24.36631819	      6.65948081	     -9.21980112	    -29.58970331	      1.40305665	      0.33098218	    -12.62948827	     -4.78583443	    -12.77064078	     28.18838948	     90.00000001	      0.00000000	      0.00000000	     28.49040137	    -10.16089051	      0.64487703	     49.77103958	     90.00000001	      0.00000000	      0.00000000
      0.04000000	     13.95572440	      0.08220375	      3.70873531	     -1.09250490	      0.84641190	     -0.26926709	     13.05341313	      0.26762320	    -15.98017885	     12.60332898	     -0.74127877	      0.21996959	     14.60080307	     -0.75855277	     -9.14188550	    -28.65925814	     -0.57930269	    -13.25518100	      3.56566668	      4.74266779	      0.06223262	     24.63592493	      7.13207280	     -9.14188550	    -29.37421682	      1.26402214	      0.08713138	    -12.93035146	     -4.66254325	    -12.95520146	     27.95158865	     90.00000001	      0.00000000	      0.00000000	     28.78548731	    -10.24220574	      1.01298034	     50.60909530	     90.00000001	      0.00000000	      0.00000000
      0.05000000	     13.62446154	      0.29420225	      3.72665742	     -1.08200402	      0.84454275	     -0.26881995	     13.62059589	     -0.08736539	    -16.52064259	     12.02840793	     -0.64697366	      0.20993532	     14.45795901	     -0.49541095	     -9.12559754	    -28.88418402	     -0.34964492	    -13.20924454	      4.04249900	      4.42134970	      0.07055492	     24.68493272	      7.19823828	     -9.12559754	    -29.01204284	      1.12172916	      0.15660689	    -13.28188326	     -4.58968201	    -12.98713056	     27.82932849	     90.00000001	      0.00000000	      0.00000000	     29.11306728	    -10.10642988	      1.14140826	     51.07879172	     90.00000001	      0.00000000	      0.00000000
      0.06000000	     13.63296974	      0.44295177	      4.19593301	     -1.07114249	      0.84331613	     -0.26859897	     13.74844541	     -0.54492820	    -18.39871518	     11.92761438	     -0.60145604	      0.20817614	     14.84854207	      2.23231701	     -8.91578391	    -29.03520778	     -0.56003207	    -14.30427124	      5.54825097	      4.03371616	      0.09683525	     25.59329626	      9.51203581	     -8.91578391	    -28.97981849	      1.21990044	     -0.26011122	    -13.34561482	     -4.34534207	    -13.85997172	     27.52258666	     90.00000001	      0.00000000	      0.00000000	     29.15977583	    -10.41976841	      1.94430326	     51.94761276	     90.00000001	      0.00000000	      0.00000000
      0.07000000	     13.31586114	      0.52721933	      4.27471371	     -1.06028378	      0.84185815	     -0.26801225	     14.12983907	     -0.71676680	    -18.64616964	     11.88275327	     -0.63551983	      0.20739317	     14.68161998	      2.15735356	     -8.90406168	    -29.17345894	     -0.53130379	    -14.15281186	      6.23979141	      3.67268056	      0.10890490	     25.54041338	      9.51872383	     -8.90406168	    -28.59883759	      1.24922990	     -0.22604349	    -13.56041543	     -4.31438271	    -13.86990404	     27.39876886	     90.00000001	      0.00000000	      0.00000000	     29.23446484	    -10.33075998	      2.09956238	     52.27767072	     90.00000001	      0.00000000	      0.00000000
      0.08000000	     13.20548298	      0.59620540	      4.64798149	     -1.04929349	      0.84091841	     -0.26739196	     14.25492867	     -0.96712278	    -19.53118319	     12.34180836	     -0.70771308	      0.21540519	     14.25554578	      1.54501011	     -8.87540332	    -29.27988449	     -0.77304418	    -14.35025819	      7.49343321	      3.27801492	      0.13078508	     25.55464064	      9.67287600	     -8.87540332	    -28.44102376	      1.37345059	     -0.52734143	    -13.50697942	     -4.20164843	    -14.01635850	     27.10155114	     90.00000001	      0.00000000	      0.00000000	     29.10355127	    -10.55605692	      2.65094499	     52.88278709	     90.00000001	      0.00000000	      0.00000000
      0.09000000	     13.04034108	      0.51392915	      4.84113146	     -1.03802390	      0.84008288	     -0.26643058	     14.43622962	     -0.94740519	    -20.22653291	     13.06085639	     -0.94377731	      0.22795495	     13.95279854	      0.79571955	     -8.84749517	    -29.34612044	     -1.13574444	    -14.63605744	      8.73631764	      2.99100636	      0.15247751	     25.51190537	     10.02894451	     -8.84749517	    -28.18778375	      1.59130871	     -0.53591337	    -13.47724335	     -4.15070806	    -14.23376190	     26.85359194	     90.00000001	      0.00000000	      0.00000000	     28.92859798	    -10.58501716	      2.97739711	     53.18274929	     90.00000001	      0.00000000	      0.00000000
      0.10000000	     13.08070223	      0.13476953	      5.06769441	     -1.02625743	      0.83965727	     -0.26513483	     14.19464445	     -0.48919088	    -20.81711744	     13.69107574	     -1.23971168	      0.23895435	     13.40288837	     -0.35270406	     -8.71825471	    -29.33274854	     -2.06720144	    -16.47003618	     10.74697679	      2.75608950	      0.18757013	     26.11111743	     12.56554514	     -8.71825471	    -28.08744990	      2.11972700	     -0.40295761	    -13.35919709	     -3.99842936	    -15.16731028	     26.61754817	     90.00000001	      0.00000000	      0.00000000	     28.68076889	    -10.56111936	      3.28617556	     53.34115212	     90.00000001	      0.00000000	      0.00000000
